G04 ================== begin FILE IDENTIFICATION RECORD ==================*
G04 Layout Name:  CHOPPING_WAVE_OSC3.brd*
G04 Film Name:    skt*
G04 File Format:  Gerber RS274X*
G04 File Origin:  Cadence Allegro 17.2-P019*
G04 Origin Date:  Wed Jul 31 12:21:45 2019*
G04 *
G04 Layer:  REF DES/SILKSCREEN_TOP*
G04 Layer:  PACKAGE GEOMETRY/SILKSCREEN_TOP*
G04 Layer:  BOARD GEOMETRY/SILKSCREEN_TOP*
G04 *
G04 Offset:    (0.000 0.000)*
G04 Mirror:    No*
G04 Mode:      Positive*
G04 Rotation:  0*
G04 FullContactRelief:  No*
G04 UndefLineWidth:     0.200*
G04 ================== end FILE IDENTIFICATION RECORD ====================*
%FSLAX25Y25*MOMM*%
%IR0*IPPOS*OFA0.00000B0.00000*MIA0B0*SFA1.00000B1.00000*%
%ADD10C,.5*%
%ADD11C,.2*%
G75*
%LPD*%
G75*
G54D10*
G01X2790000Y6686700D02*
X2760000Y6706700D01*
X2725000Y6720000D01*
X2685000D01*
X2640000Y6700000D01*
X2605000Y6666700D01*
X2580000Y6626700D01*
X2560000Y6560000D01*
X2555000Y6500000D01*
X2565000Y6440000D01*
X2580000Y6400000D01*
X2610000Y6360000D01*
X2645000Y6333300D01*
X2680000Y6320000D01*
X2715000D01*
X2750000Y6333300D01*
X2780000Y6353300D01*
X2805000Y6380000D01*
G01X2890200Y6320000D02*
Y6720000D01*
G01X3100200D02*
Y6320000D01*
G01Y6520000D02*
X2890200D01*
G01X3310400Y6320000D02*
X3270400Y6326700D01*
X3235400Y6353300D01*
X3205400Y6393300D01*
X3185400Y6440000D01*
X3175400Y6493300D01*
Y6546700D01*
X3185400Y6600000D01*
X3205400Y6646700D01*
X3235400Y6686700D01*
X3270400Y6713300D01*
X3310400Y6720000D01*
X3350400Y6713300D01*
X3385400Y6686700D01*
X3415400Y6646700D01*
X3435400Y6600000D01*
X3445400Y6546700D01*
Y6493300D01*
X3435400Y6440000D01*
X3415400Y6393300D01*
X3385400Y6353300D01*
X3350400Y6326700D01*
X3310400Y6320000D01*
G01X3525600D02*
Y6720000D01*
X3645600D01*
X3685600Y6700000D01*
X3715600Y6653300D01*
X3725600Y6600000D01*
X3715600Y6546700D01*
X3690600Y6506700D01*
X3645600Y6486700D01*
X3525600D01*
G01X3840800Y6320000D02*
Y6720000D01*
X3960800D01*
X4000800Y6700000D01*
X4030800Y6653300D01*
X4040800Y6600000D01*
X4030800Y6546700D01*
X4005800Y6506700D01*
X3960800Y6486700D01*
X3840800D01*
G01X4196000Y6720000D02*
X4316000D01*
G01X4256000D02*
Y6320000D01*
G01X4196000D02*
X4316000D01*
G01X4456200D02*
Y6720000D01*
X4686200Y6320000D01*
Y6720000D01*
G01X4916400Y6520000D02*
X5016400D01*
Y6400000D01*
X4986400Y6360000D01*
X4951400Y6333300D01*
X4901400Y6320000D01*
X4851400Y6333300D01*
X4816400Y6360000D01*
X4786400Y6400000D01*
X4766400Y6446700D01*
X4756400Y6500000D01*
Y6546700D01*
X4766400Y6586700D01*
X4786400Y6633300D01*
X4816400Y6673300D01*
X4846400Y6700000D01*
X4886400Y6720000D01*
X4921400D01*
X4961400Y6706700D01*
X4991400Y6680000D01*
G01X5366800Y6720000D02*
X5436800Y6320000D01*
X5516800Y6720000D01*
X5596800Y6320000D01*
X5666800Y6720000D01*
G01X5707000Y6320000D02*
X5832000Y6720000D01*
X5957000Y6320000D01*
G01X5912000Y6460000D02*
X5752000D01*
G01X6022200Y6720000D02*
X6147200Y6320000D01*
X6272200Y6720000D01*
G01X6562400Y6320000D02*
X6362400D01*
Y6720000D01*
X6562400D01*
G01X6482400Y6526700D02*
X6362400D01*
G01X7092800Y6320000D02*
X7052800Y6326700D01*
X7017800Y6353300D01*
X6987800Y6393300D01*
X6967800Y6440000D01*
X6957800Y6493300D01*
Y6546700D01*
X6967800Y6600000D01*
X6987800Y6646700D01*
X7017800Y6686700D01*
X7052800Y6713300D01*
X7092800Y6720000D01*
X7132800Y6713300D01*
X7167800Y6686700D01*
X7197800Y6646700D01*
X7217800Y6600000D01*
X7227800Y6546700D01*
Y6493300D01*
X7217800Y6440000D01*
X7197800Y6393300D01*
X7167800Y6353300D01*
X7132800Y6326700D01*
X7092800Y6320000D01*
G01X7303000Y6373300D02*
X7343000Y6340000D01*
X7388000Y6320000D01*
X7428000D01*
X7468000Y6340000D01*
X7498000Y6373300D01*
X7513000Y6420000D01*
X7503000Y6466700D01*
X7478000Y6506700D01*
X7433000Y6533300D01*
X7373000Y6546700D01*
X7338000Y6573300D01*
X7323000Y6620000D01*
X7333000Y6666700D01*
X7358000Y6700000D01*
X7393000Y6720000D01*
X7428000D01*
X7463000Y6706700D01*
X7493000Y6673300D01*
G01X7833200Y6686700D02*
X7803200Y6706700D01*
X7768200Y6720000D01*
X7728200D01*
X7683200Y6700000D01*
X7648200Y6666700D01*
X7623200Y6626700D01*
X7603200Y6560000D01*
X7598200Y6500000D01*
X7608200Y6440000D01*
X7623200Y6400000D01*
X7653200Y6360000D01*
X7688200Y6333300D01*
X7723200Y6320000D01*
X7758200D01*
X7793200Y6333300D01*
X7823200Y6353300D01*
X7848200Y6380000D01*
G01X3050000Y230000D02*
X2850000D01*
Y630000D01*
X3050000D01*
G01X2970000Y436700D02*
X2850000D01*
G01X3165200Y630000D02*
Y230000D01*
X3365200D01*
G01X3680400D02*
X3480400D01*
Y630000D01*
X3680400D01*
G01X3600400Y436700D02*
X3480400D01*
G01X4005600Y596700D02*
X3975600Y616700D01*
X3940600Y630000D01*
X3900600D01*
X3855600Y610000D01*
X3820600Y576700D01*
X3795600Y536700D01*
X3775600Y470000D01*
X3770600Y410000D01*
X3780600Y350000D01*
X3795600Y310000D01*
X3825600Y270000D01*
X3860600Y243300D01*
X3895600Y230000D01*
X3930600D01*
X3965600Y243300D01*
X3995600Y263300D01*
X4020600Y290000D01*
G01X4210800Y630000D02*
Y230000D01*
G01X4095800Y630000D02*
X4325800D01*
G01X4426000Y230000D02*
Y630000D01*
X4551000D01*
X4591000Y610000D01*
X4616000Y583300D01*
X4626000Y530000D01*
X4616000Y476700D01*
X4586000Y443300D01*
X4551000Y423300D01*
X4426000D01*
G01X4551000D02*
X4626000Y230000D01*
G01X4841200D02*
X4801200Y236700D01*
X4766200Y263300D01*
X4736200Y303300D01*
X4716200Y350000D01*
X4706200Y403300D01*
Y456700D01*
X4716200Y510000D01*
X4736200Y556700D01*
X4766200Y596700D01*
X4801200Y623300D01*
X4841200Y630000D01*
X4881200Y623300D01*
X4916200Y596700D01*
X4946200Y556700D01*
X4966200Y510000D01*
X4976200Y456700D01*
Y403300D01*
X4966200Y350000D01*
X4946200Y303300D01*
X4916200Y263300D01*
X4881200Y236700D01*
X4841200Y230000D01*
G01X5041400D02*
Y630000D01*
X5271400Y230000D01*
Y630000D01*
G01X5411600D02*
X5531600D01*
G01X5471600D02*
Y230000D01*
G01X5411600D02*
X5531600D01*
G01X5896800Y596700D02*
X5866800Y616700D01*
X5831800Y630000D01*
X5791800D01*
X5746800Y610000D01*
X5711800Y576700D01*
X5686800Y536700D01*
X5666800Y470000D01*
X5661800Y410000D01*
X5671800Y350000D01*
X5686800Y310000D01*
X5716800Y270000D01*
X5751800Y243300D01*
X5786800Y230000D01*
X5821800D01*
X5856800Y243300D01*
X5886800Y263300D01*
X5911800Y290000D01*
G01X6527200Y596700D02*
X6497200Y616700D01*
X6462200Y630000D01*
X6422200D01*
X6377200Y610000D01*
X6342200Y576700D01*
X6317200Y536700D01*
X6297200Y470000D01*
X6292200Y410000D01*
X6302200Y350000D01*
X6317200Y310000D01*
X6347200Y270000D01*
X6382200Y243300D01*
X6417200Y230000D01*
X6452200D01*
X6487200Y243300D01*
X6517200Y263300D01*
X6542200Y290000D01*
G01X6607400Y230000D02*
X6732400Y630000D01*
X6857400Y230000D01*
G01X6812400Y370000D02*
X6652400D01*
G01X6937600Y230000D02*
Y630000D01*
X7037600D01*
X7077600Y610000D01*
X7107600Y583300D01*
X7132600Y543300D01*
X7152600Y496700D01*
X7157600Y430000D01*
X7152600Y363300D01*
X7132600Y316700D01*
X7107600Y276700D01*
X7077600Y250000D01*
X7037600Y230000D01*
X6937600D01*
G54D11*
G01X373000Y3627000D02*
X627000D01*
Y2865000D01*
X373000D01*
Y3627000D01*
G01X543600Y3101000D02*
X534500Y3095200D01*
X529200Y3087400D01*
X527900Y3078600D01*
X529200Y3070800D01*
X535800Y3063100D01*
X543600Y3058200D01*
X551500Y3057200D01*
X560700Y3059200D01*
X567200Y3066000D01*
X569900Y3072800D01*
Y3081500D01*
G01Y3072800D02*
X573800Y3066900D01*
X580400Y3062100D01*
X588200Y3060100D01*
X596100Y3062100D01*
X602700Y3066900D01*
X606600Y3075700D01*
X605300Y3084500D01*
X600000Y3093200D01*
G01X593500Y3352100D02*
X601400Y3346300D01*
X605300Y3339400D01*
X606600Y3331700D01*
X604000Y3321900D01*
X597400Y3315100D01*
X589500Y3313200D01*
X581700Y3314100D01*
X575100Y3318000D01*
X562000Y3337500D01*
X552800Y3346300D01*
X539700Y3352100D01*
X527900Y3354000D01*
Y3313200D01*
G01X385600Y3698700D02*
X390500Y3690900D01*
X396300Y3685600D01*
X403200Y3683000D01*
X410900Y3685600D01*
X416800Y3690900D01*
X422600Y3698700D01*
X424600Y3709200D01*
Y3761700D01*
G01X483800Y3683000D02*
Y3761700D01*
X472100Y3746000D01*
G01Y3683000D02*
X495500D01*
G01X527900Y3587600D02*
X606600D01*
X590900Y3599300D01*
G01X527900D02*
Y3575900D01*
G01X766600Y4127500D02*
Y4206200D01*
X791000D01*
X798800Y4202300D01*
X803600Y4197000D01*
X805600Y4186500D01*
X803600Y4176000D01*
X797800Y4169500D01*
X791000Y4165500D01*
X766600D01*
G01X791000D02*
X805600Y4127500D01*
G01X876500D02*
Y4206200D01*
X840500Y4149800D01*
X889100D01*
G01X1197000Y4627600D02*
Y3916400D01*
X943000D01*
Y4627600D01*
X1197000D01*
G01X1050100Y5640900D02*
X1040500Y5647300D01*
X1029200Y5651500D01*
X1016400D01*
X1001900Y5645100D01*
X990600Y5634600D01*
X982600Y5621900D01*
X976100Y5600700D01*
X974500Y5581600D01*
X977800Y5562600D01*
X982600Y5549900D01*
X992200Y5537200D01*
X1003500Y5528700D01*
X1014700Y5524500D01*
X1026000D01*
X1037300Y5528700D01*
X1046900Y5535100D01*
X1055000Y5543500D01*
G01X1144200Y5524500D02*
Y5651500D01*
X1124900Y5626100D01*
G01Y5524500D02*
X1163500D01*
G01X1324000Y5967000D02*
G03I-254000J0D01*
G01X895300Y6159600D02*
X901100Y6167500D01*
X908000Y6171400D01*
X915700Y6172700D01*
X925500Y6170100D01*
X932300Y6163500D01*
X934200Y6155600D01*
X933300Y6147800D01*
X929400Y6141200D01*
X909900Y6128100D01*
X901100Y6118900D01*
X895300Y6105800D01*
X893400Y6094000D01*
X934200D01*
G01X913800Y5840000D02*
Y5918700D01*
X902100Y5903000D01*
G01Y5840000D02*
X925500D01*
G01X1244700Y3698400D02*
X1238900Y3690500D01*
X1232000Y3686600D01*
X1224300Y3685300D01*
X1214500Y3687900D01*
X1207700Y3694500D01*
X1205800Y3702400D01*
X1206700Y3710200D01*
X1210600Y3716800D01*
X1230100Y3729900D01*
X1238900Y3739100D01*
X1244700Y3752200D01*
X1246600Y3764000D01*
X1205800D01*
G01X1655600Y4127500D02*
Y4206200D01*
X1680000D01*
X1687800Y4202300D01*
X1692600Y4197000D01*
X1694600Y4186500D01*
X1692600Y4176000D01*
X1686800Y4169500D01*
X1680000Y4165500D01*
X1655600D01*
G01X1680000D02*
X1694600Y4127500D01*
G01X1732400Y4139300D02*
X1738200Y4132700D01*
X1745000Y4128800D01*
X1753800Y4127500D01*
X1762600Y4130100D01*
X1769400Y4135400D01*
X1774200Y4144600D01*
X1775200Y4155000D01*
X1773300Y4165500D01*
X1768400Y4172100D01*
X1761600Y4177300D01*
X1754800Y4178700D01*
X1748000Y4177300D01*
X1739200Y4172100D01*
X1742100Y4206200D01*
X1768400D01*
G01X2057000Y4627600D02*
Y3916400D01*
X1803000D01*
Y4627600D01*
X2057000D01*
G01X1226200Y4780000D02*
Y4701300D01*
X1237900Y4717000D01*
G01Y4780000D02*
X1214500D01*
G01X1875600Y5386900D02*
X1866000Y5393300D01*
X1854700Y5397500D01*
X1841900D01*
X1827400Y5391100D01*
X1816100Y5380600D01*
X1808100Y5367900D01*
X1801600Y5346700D01*
X1800000Y5327600D01*
X1803300Y5308600D01*
X1808100Y5295900D01*
X1817700Y5283200D01*
X1829000Y5274700D01*
X1840200Y5270500D01*
X1851500D01*
X1862800Y5274700D01*
X1872400Y5281100D01*
X1880500Y5289500D01*
G01X1939200Y5376300D02*
X1948800Y5389000D01*
X1960100Y5395400D01*
X1973000Y5397500D01*
X1989100Y5393300D01*
X2000300Y5382700D01*
X2003500Y5370000D01*
X2001900Y5357300D01*
X1995500Y5346700D01*
X1963300Y5325500D01*
X1948800Y5310700D01*
X1939200Y5289500D01*
X1936000Y5270500D01*
X2003500D01*
G01X2184000Y5713000D02*
G03I-254000J0D01*
G01X2341600Y3257000D02*
X2494000D01*
X2557500Y3193500D01*
X2684500D01*
X2748000Y3257000D01*
X2900400D01*
Y2241000D01*
X2341600D01*
Y3257000D01*
G01X2225300Y2368000D02*
Y2431500D01*
X2200300Y2386000D01*
X2234100D01*
G01X2202300Y2634700D02*
X2206400Y2627300D01*
X2211800Y2623100D01*
X2217900Y2622000D01*
X2223300Y2623100D01*
X2228700Y2628300D01*
X2232100Y2634700D01*
X2232800Y2641000D01*
X2231400Y2648500D01*
X2226700Y2653700D01*
X2221900Y2655900D01*
X2215800D01*
G01X2221900D02*
X2226000Y2659000D01*
X2229400Y2664300D01*
X2230700Y2670700D01*
X2229400Y2677000D01*
X2226000Y2682300D01*
X2219900Y2685500D01*
X2213800Y2684400D01*
X2207700Y2680200D01*
G01X2204300Y2928900D02*
X2208400Y2935300D01*
X2213100Y2938400D01*
X2218600Y2939500D01*
X2225300Y2937400D01*
X2230100Y2932100D01*
X2231400Y2925700D01*
X2230700Y2919400D01*
X2228000Y2914100D01*
X2214500Y2903500D01*
X2208400Y2896100D01*
X2204300Y2885500D01*
X2203000Y2876000D01*
X2231400D01*
G01X2217200Y3130000D02*
Y3193500D01*
X2209100Y3180800D01*
G01Y3130000D02*
X2225300D01*
G01X2104700Y3698400D02*
X2098900Y3690500D01*
X2092000Y3686600D01*
X2084300Y3685300D01*
X2074500Y3687900D01*
X2067700Y3694500D01*
X2065800Y3702400D01*
X2066700Y3710200D01*
X2070600Y3716800D01*
X2090100Y3729900D01*
X2098900Y3739100D01*
X2104700Y3752200D01*
X2106600Y3764000D01*
X2065800D01*
G01X2417600Y4127500D02*
Y4206200D01*
X2442000D01*
X2449800Y4202300D01*
X2454600Y4197000D01*
X2456600Y4186500D01*
X2454600Y4176000D01*
X2448800Y4169500D01*
X2442000Y4165500D01*
X2417600D01*
G01X2442000D02*
X2456600Y4127500D01*
G01X2497300Y4160300D02*
X2504100Y4169500D01*
X2510000Y4174700D01*
X2517700Y4177300D01*
X2524600Y4174700D01*
X2529400Y4169500D01*
X2533300Y4161600D01*
X2534300Y4152400D01*
X2533300Y4144600D01*
X2529400Y4136700D01*
X2523600Y4130100D01*
X2516800Y4127500D01*
X2509000Y4130100D01*
X2502200Y4138000D01*
X2498300Y4149800D01*
X2497300Y4162900D01*
X2499300Y4180000D01*
X2502200Y4189100D01*
X2507000Y4198300D01*
X2513900Y4204900D01*
X2520700Y4206200D01*
X2527500Y4203600D01*
X2532300Y4197000D01*
G01X2827000Y4627600D02*
Y3916400D01*
X2573000D01*
Y4627600D01*
X2827000D01*
G01X2086200Y4780000D02*
Y4701300D01*
X2097900Y4717000D01*
G01Y4780000D02*
X2074500D01*
G01X2637600Y5386900D02*
X2628000Y5393300D01*
X2616700Y5397500D01*
X2603900D01*
X2589400Y5391100D01*
X2578100Y5380600D01*
X2570100Y5367900D01*
X2563600Y5346700D01*
X2562000Y5327600D01*
X2565300Y5308600D01*
X2570100Y5295900D01*
X2579700Y5283200D01*
X2591000Y5274700D01*
X2602200Y5270500D01*
X2613500D01*
X2624800Y5274700D01*
X2634400Y5281100D01*
X2642500Y5289500D01*
G01X2696400Y5295900D02*
X2706000Y5281100D01*
X2718900Y5272600D01*
X2733400Y5270500D01*
X2746200Y5272600D01*
X2759100Y5283200D01*
X2767100Y5295900D01*
X2768700Y5308600D01*
X2765500Y5323400D01*
X2754300Y5334000D01*
X2743000Y5338200D01*
X2728500D01*
G01X2743000D02*
X2752700Y5344600D01*
X2760700Y5355200D01*
X2763900Y5367900D01*
X2760700Y5380600D01*
X2752700Y5391100D01*
X2738200Y5397500D01*
X2723700Y5395400D01*
X2709200Y5386900D01*
G01X2954000Y5717000D02*
G03I-254000J0D01*
G01X2543800Y5590000D02*
Y5668700D01*
X2532100Y5653000D01*
G01Y5590000D02*
X2555500D01*
G01X2104700Y5520400D02*
X2098900Y5512500D01*
X2092000Y5508600D01*
X2084300Y5507300D01*
X2074500Y5509900D01*
X2067700Y5516500D01*
X2065800Y5524400D01*
X2066700Y5532200D01*
X2070600Y5538800D01*
X2090100Y5551900D01*
X2098900Y5561100D01*
X2104700Y5574200D01*
X2106600Y5586000D01*
X2065800D01*
G01X2525300Y5909600D02*
X2531100Y5917500D01*
X2538000Y5921400D01*
X2545700Y5922700D01*
X2555500Y5920100D01*
X2562300Y5913500D01*
X2564200Y5905600D01*
X2563300Y5897800D01*
X2559400Y5891200D01*
X2539900Y5878100D01*
X2531100Y5868900D01*
X2525300Y5855800D01*
X2523400Y5844000D01*
X2564200D01*
G01X2086200Y5840000D02*
Y5761300D01*
X2097900Y5777000D01*
G01Y5840000D02*
X2074500D01*
G01X2964300Y2377500D02*
X2968400Y2372200D01*
X2973100Y2369100D01*
X2979200Y2368000D01*
X2985300Y2370100D01*
X2990000Y2374300D01*
X2993400Y2381800D01*
X2994100Y2390200D01*
X2992700Y2398700D01*
X2989300Y2404000D01*
X2984600Y2408200D01*
X2979900Y2409300D01*
X2975100Y2408200D01*
X2969100Y2404000D01*
X2971100Y2431500D01*
X2989300D01*
G01X2966300Y2648500D02*
X2971100Y2655900D01*
X2975100Y2660100D01*
X2980600Y2662200D01*
X2985300Y2660100D01*
X2988700Y2655900D01*
X2991400Y2649500D01*
X2992100Y2642100D01*
X2991400Y2635800D01*
X2988700Y2629400D01*
X2984600Y2624100D01*
X2979900Y2622000D01*
X2974500Y2624100D01*
X2969700Y2630500D01*
X2967000Y2640000D01*
X2966300Y2650600D01*
X2967700Y2664300D01*
X2969700Y2671700D01*
X2973100Y2679100D01*
X2977800Y2684400D01*
X2982600Y2685500D01*
X2987300Y2683400D01*
X2990700Y2678100D01*
G01X3145700Y3112200D02*
Y3021200D01*
X3152100Y3002100D01*
X3165000Y2989400D01*
X3181000Y2985200D01*
X3197100Y2989400D01*
X3210000Y3002100D01*
X3216400Y3021200D01*
Y3112200D01*
G01X3275200Y3010600D02*
X3284800Y2995800D01*
X3297700Y2987300D01*
X3312200Y2985200D01*
X3325000Y2987300D01*
X3337900Y2997900D01*
X3345900Y3010600D01*
X3347500Y3023300D01*
X3344300Y3038100D01*
X3333100Y3048700D01*
X3321800Y3052900D01*
X3307300D01*
G01X3321800D02*
X3331500Y3059300D01*
X3339500Y3069900D01*
X3342700Y3082600D01*
X3339500Y3095300D01*
X3331500Y3105800D01*
X3317000Y3112200D01*
X3302500Y3110100D01*
X3288000Y3101600D01*
G01X2977800Y2876000D02*
X2979200Y2889800D01*
X2981200Y2901400D01*
X2983900Y2912000D01*
X2987300Y2923600D01*
X2992700Y2939500D01*
X2965700D01*
G01X2979200Y3130000D02*
X2983900Y3131100D01*
X2989300Y3134200D01*
X2992700Y3139500D01*
X2994100Y3146900D01*
X2992700Y3154300D01*
X2988700Y3160700D01*
X2982600Y3163900D01*
X2975800D01*
X2971800Y3166000D01*
X2968400Y3171300D01*
X2967000Y3178700D01*
X2969100Y3186100D01*
X2973800Y3191400D01*
X2979200Y3193500D01*
X2984600Y3191400D01*
X2989300Y3186100D01*
X2991400Y3178700D01*
X2990000Y3171300D01*
X2986600Y3166000D01*
X2982600Y3163900D01*
X2975800D01*
X2969700Y3160700D01*
X2965700Y3154300D01*
X2964300Y3146900D01*
X2965700Y3139500D01*
X2969100Y3134200D01*
X2974500Y3131100D01*
X2979200Y3130000D01*
G01X2874700Y3698400D02*
X2868900Y3690500D01*
X2862000Y3686600D01*
X2854300Y3685300D01*
X2844500Y3687900D01*
X2837700Y3694500D01*
X2835800Y3702400D01*
X2836700Y3710200D01*
X2840600Y3716800D01*
X2860100Y3729900D01*
X2868900Y3739100D01*
X2874700Y3752200D01*
X2876600Y3764000D01*
X2835800D01*
G01X3116100Y4127500D02*
Y4206200D01*
X3140500D01*
X3148300Y4202300D01*
X3153100Y4197000D01*
X3155100Y4186500D01*
X3153100Y4176000D01*
X3147300Y4169500D01*
X3140500Y4165500D01*
X3116100D01*
G01X3140500D02*
X3155100Y4127500D01*
G01X3212400D02*
X3214300Y4144600D01*
X3217200Y4159000D01*
X3221100Y4172100D01*
X3226000Y4186500D01*
X3233800Y4206200D01*
X3194800D01*
G01X3537000Y4627600D02*
Y3916400D01*
X3283000D01*
Y4627600D01*
X3537000D01*
G01X2856200Y4780000D02*
Y4701300D01*
X2867900Y4717000D01*
G01Y4780000D02*
X2844500D01*
G01X3336100Y5386900D02*
X3326500Y5393300D01*
X3315200Y5397500D01*
X3302400D01*
X3287900Y5391100D01*
X3276600Y5380600D01*
X3268600Y5367900D01*
X3262100Y5346700D01*
X3260500Y5327600D01*
X3263800Y5308600D01*
X3268600Y5295900D01*
X3278200Y5283200D01*
X3289500Y5274700D01*
X3300700Y5270500D01*
X3312000D01*
X3323300Y5274700D01*
X3332900Y5281100D01*
X3341000Y5289500D01*
G01X3449600Y5270500D02*
Y5397500D01*
X3390000Y5306500D01*
X3470500D01*
G01X3664000Y5713000D02*
G03I-254000J0D01*
G01X3937000Y1739900D02*
Y2451100D01*
X4191000D01*
Y1739900D01*
X3937000D01*
G01X3907800Y1587500D02*
Y1666200D01*
X3896100Y1650500D01*
G01Y1587500D02*
X3919500D01*
G01X3711800Y2095500D02*
Y2174200D01*
X3736200D01*
X3744000Y2170300D01*
X3748800Y2165000D01*
X3750800Y2154500D01*
X3748800Y2144000D01*
X3743000Y2137500D01*
X3736200Y2133500D01*
X3711800D01*
G01X3736200D02*
X3750800Y2095500D01*
G01X3810000D02*
Y2174200D01*
X3798300Y2158500D01*
G01Y2095500D02*
X3821700D01*
G01X3870200Y2161100D02*
X3876000Y2169000D01*
X3882900Y2172900D01*
X3890600Y2174200D01*
X3900400Y2171600D01*
X3907200Y2165000D01*
X3909100Y2157100D01*
X3908200Y2149300D01*
X3904300Y2142700D01*
X3884800Y2129600D01*
X3876000Y2120400D01*
X3870200Y2107300D01*
X3868300Y2095500D01*
X3909100D01*
G01X3889300Y2669100D02*
X3895100Y2677000D01*
X3902000Y2680900D01*
X3909700Y2682200D01*
X3919500Y2679600D01*
X3926300Y2673000D01*
X3928200Y2665100D01*
X3927300Y2657300D01*
X3923400Y2650700D01*
X3903900Y2637600D01*
X3895100Y2628400D01*
X3889300Y2615300D01*
X3887400Y2603500D01*
X3928200D01*
G01X3814600Y4127500D02*
Y4206200D01*
X3839000D01*
X3846800Y4202300D01*
X3851600Y4197000D01*
X3853600Y4186500D01*
X3851600Y4176000D01*
X3845800Y4169500D01*
X3839000Y4165500D01*
X3814600D01*
G01X3839000D02*
X3853600Y4127500D01*
G01X3891400Y4143200D02*
X3897200Y4134100D01*
X3905000Y4128800D01*
X3913800Y4127500D01*
X3921600Y4128800D01*
X3929300Y4135400D01*
X3934200Y4143200D01*
X3935200Y4151100D01*
X3933200Y4160300D01*
X3926400Y4166800D01*
X3919600Y4169500D01*
X3910900D01*
G01X3919600D02*
X3925500Y4173400D01*
X3930300Y4180000D01*
X3932300Y4187800D01*
X3930300Y4195700D01*
X3925500Y4202300D01*
X3916700Y4206200D01*
X3907900Y4204900D01*
X3899200Y4199600D01*
G01X4237000Y4507600D02*
Y3796400D01*
X3983000D01*
Y4507600D01*
X4237000D01*
G01X3584700Y3698400D02*
X3578900Y3690500D01*
X3572000Y3686600D01*
X3564300Y3685300D01*
X3554500Y3687900D01*
X3547700Y3694500D01*
X3545800Y3702400D01*
X3546700Y3710200D01*
X3550600Y3716800D01*
X3570100Y3729900D01*
X3578900Y3739100D01*
X3584700Y3752200D01*
X3586600Y3764000D01*
X3545800D01*
G01X3566200Y4780000D02*
Y4701300D01*
X3577900Y4717000D01*
G01Y4780000D02*
X3554500D01*
G01X3584700Y5520400D02*
X3578900Y5512500D01*
X3572000Y5508600D01*
X3564300Y5507300D01*
X3554500Y5509900D01*
X3547700Y5516500D01*
X3545800Y5524400D01*
X3546700Y5532200D01*
X3550600Y5538800D01*
X3570100Y5551900D01*
X3578900Y5561100D01*
X3584700Y5574200D01*
X3586600Y5586000D01*
X3545800D01*
G01X4040000Y5256200D02*
X4118700D01*
X4103000Y5267900D01*
G01X4040000D02*
Y5244500D01*
G01X3566200Y5840000D02*
Y5761300D01*
X3577900Y5777000D01*
G01Y5840000D02*
X3554500D01*
G01X4727800Y1968500D02*
Y2047200D01*
X4752200D01*
X4760000Y2043300D01*
X4764800Y2038000D01*
X4766800Y2027500D01*
X4764800Y2017000D01*
X4759000Y2010500D01*
X4752200Y2006500D01*
X4727800D01*
G01X4752200D02*
X4766800Y1968500D01*
G01X4826000D02*
Y2047200D01*
X4814300Y2031500D01*
G01Y1968500D02*
X4837700D01*
G01X4883300Y1984200D02*
X4889100Y1975100D01*
X4896900Y1969800D01*
X4905700Y1968500D01*
X4913500Y1969800D01*
X4921200Y1976400D01*
X4926100Y1984200D01*
X4927100Y1992100D01*
X4925100Y2001300D01*
X4918300Y2007800D01*
X4911500Y2010500D01*
X4902800D01*
G01X4911500D02*
X4917400Y2014400D01*
X4922200Y2021000D01*
X4924200Y2028800D01*
X4922200Y2036700D01*
X4917400Y2043300D01*
X4908600Y2047200D01*
X4899800Y2045900D01*
X4891100Y2040600D01*
G01X4284700Y3578400D02*
X4278900Y3570500D01*
X4272000Y3566600D01*
X4264300Y3565300D01*
X4254500Y3567900D01*
X4247700Y3574500D01*
X4245800Y3582400D01*
X4246700Y3590200D01*
X4250600Y3596800D01*
X4270100Y3609900D01*
X4278900Y3619100D01*
X4284700Y3632200D01*
X4286600Y3644000D01*
X4245800D01*
G01X4266200Y4660000D02*
Y4581300D01*
X4277900Y4597000D01*
G01Y4660000D02*
X4254500D01*
G01X4767100Y4826000D02*
Y4904700D01*
X4791500D01*
X4799300Y4900800D01*
X4804100Y4895500D01*
X4806100Y4885000D01*
X4804100Y4874500D01*
X4798300Y4868000D01*
X4791500Y4864000D01*
X4767100D01*
G01X4791500D02*
X4806100Y4826000D01*
G01X4865300D02*
X4872100Y4827300D01*
X4879900Y4831200D01*
X4884800Y4837800D01*
X4886700Y4847000D01*
X4884800Y4856200D01*
X4878900Y4864000D01*
X4870200Y4868000D01*
X4860400D01*
X4854600Y4870600D01*
X4849700Y4877200D01*
X4847800Y4886300D01*
X4850700Y4895500D01*
X4857500Y4902100D01*
X4865300Y4904700D01*
X4873100Y4902100D01*
X4879900Y4895500D01*
X4882800Y4886300D01*
X4880900Y4877200D01*
X4876000Y4870600D01*
X4870200Y4868000D01*
X4860400D01*
X4851700Y4864000D01*
X4845800Y4856200D01*
X4843900Y4847000D01*
X4845800Y4837800D01*
X4850700Y4831200D01*
X4858500Y4827300D01*
X4865300Y4826000D01*
G01X4192400Y5227000D02*
X4903600D01*
Y4973000D01*
X4192400D01*
Y5227000D01*
G01X4402200Y6159500D02*
X4442400Y6032500D01*
X4482700Y6159500D01*
G01X4539800Y6032500D02*
Y6159500D01*
X4580000D01*
X4592900Y6153100D01*
X4600900Y6144700D01*
X4604100Y6127700D01*
X4600900Y6110800D01*
X4591300Y6100200D01*
X4580000Y6093900D01*
X4539800D01*
G01X4580000D02*
X4604100Y6032500D01*
G01X4701400D02*
Y6159500D01*
X4682100Y6134100D01*
G01Y6032500D02*
X4720700D01*
G01X4738500Y6221000D02*
X5373500D01*
Y5713000D01*
X4738500D01*
Y6221000D01*
G01X4814700Y5938700D02*
X4807300Y5934600D01*
X4803100Y5929200D01*
X4802000Y5923100D01*
X4803100Y5917700D01*
X4808300Y5912300D01*
X4814700Y5908900D01*
X4821000Y5908200D01*
X4828500Y5909600D01*
X4833700Y5914300D01*
X4835900Y5919100D01*
Y5925200D01*
G01Y5919100D02*
X4839000Y5915000D01*
X4844300Y5911600D01*
X4850700Y5910300D01*
X4857000Y5911600D01*
X4862300Y5915000D01*
X4865500Y5921100D01*
X4864400Y5927200D01*
X4860200Y5933300D01*
G01X5905500Y2451100D02*
Y1739900D01*
X5651500D01*
Y2451100D01*
X5905500D01*
G01X5207000D02*
Y1739900D01*
X4953000D01*
Y2451100D01*
X5207000D01*
G01X5254700Y1521900D02*
X5248900Y1514000D01*
X5242000Y1510100D01*
X5234300Y1508800D01*
X5224500Y1511400D01*
X5217700Y1518000D01*
X5215800Y1525900D01*
X5216700Y1533700D01*
X5220600Y1540300D01*
X5240100Y1553400D01*
X5248900Y1562600D01*
X5254700Y1575700D01*
X5256600Y1587500D01*
X5215800D01*
G01X5426300Y2032000D02*
Y2110700D01*
X5450700D01*
X5458500Y2106800D01*
X5463300Y2101500D01*
X5465300Y2091000D01*
X5463300Y2080500D01*
X5457500Y2074000D01*
X5450700Y2070000D01*
X5426300D01*
G01X5450700D02*
X5465300Y2032000D01*
G01X5524500D02*
Y2110700D01*
X5512800Y2095000D01*
G01Y2032000D02*
X5536200D01*
G01X5581800Y2043800D02*
X5587600Y2037200D01*
X5594400Y2033300D01*
X5603200Y2032000D01*
X5612000Y2034600D01*
X5618800Y2039900D01*
X5623600Y2049100D01*
X5624600Y2059500D01*
X5622700Y2070000D01*
X5617800Y2076600D01*
X5611000Y2081800D01*
X5604200Y2083200D01*
X5597400Y2081800D01*
X5588600Y2076600D01*
X5591500Y2110700D01*
X5617800D01*
G01X5236200Y2603500D02*
Y2524800D01*
X5247900Y2540500D01*
G01Y2603500D02*
X5224500D01*
G01X5021100Y3873500D02*
Y3952200D01*
X5045500D01*
X5053300Y3948300D01*
X5058100Y3943000D01*
X5060100Y3932500D01*
X5058100Y3922000D01*
X5052300Y3915500D01*
X5045500Y3911500D01*
X5021100D01*
G01X5045500D02*
X5060100Y3873500D01*
G01X5100800Y3939100D02*
X5106600Y3947000D01*
X5113500Y3950900D01*
X5121200Y3952200D01*
X5131000Y3949600D01*
X5137800Y3943000D01*
X5139700Y3935100D01*
X5138800Y3927300D01*
X5134900Y3920700D01*
X5115400Y3907600D01*
X5106600Y3898400D01*
X5100800Y3885300D01*
X5098900Y3873500D01*
X5139700D01*
G01X5437000Y4417600D02*
Y3706400D01*
X5183000D01*
Y4417600D01*
X5437000D01*
G01X5484700Y3488400D02*
X5478900Y3480500D01*
X5472000Y3476600D01*
X5464300Y3475300D01*
X5454500Y3477900D01*
X5447700Y3484500D01*
X5445800Y3492400D01*
X5446700Y3500200D01*
X5450600Y3506800D01*
X5470100Y3519900D01*
X5478900Y3529100D01*
X5484700Y3542200D01*
X5486600Y3554000D01*
X5445800D01*
G01X5635300Y4588000D02*
Y4651500D01*
X5610300Y4606000D01*
X5644100D01*
G01X5612300Y4854700D02*
X5616400Y4847300D01*
X5621800Y4843100D01*
X5627900Y4842000D01*
X5633300Y4843100D01*
X5638700Y4848300D01*
X5642100Y4854700D01*
X5642800Y4861000D01*
X5641400Y4868500D01*
X5636700Y4873700D01*
X5631900Y4875900D01*
X5625800D01*
G01X5631900D02*
X5636000Y4879000D01*
X5639400Y4884300D01*
X5640700Y4890700D01*
X5639400Y4897000D01*
X5636000Y4902300D01*
X5629900Y4905500D01*
X5623800Y4904400D01*
X5617700Y4900200D01*
G01X5466200Y4570000D02*
Y4491300D01*
X5477900Y4507000D01*
G01Y4570000D02*
X5454500D01*
G01X5614300Y5148900D02*
X5618400Y5155300D01*
X5623100Y5158400D01*
X5628600Y5159500D01*
X5635300Y5157400D01*
X5640100Y5152100D01*
X5641400Y5145700D01*
X5640700Y5139400D01*
X5638000Y5134100D01*
X5624500Y5123500D01*
X5618400Y5116100D01*
X5614300Y5105500D01*
X5613000Y5096000D01*
X5641400D01*
G01X5627200Y5350000D02*
Y5413500D01*
X5619100Y5400800D01*
G01Y5350000D02*
X5635300D01*
G01X5121600Y5274700D02*
X5129500Y5268900D01*
X5133400Y5262000D01*
X5134700Y5254300D01*
X5132100Y5244500D01*
X5125500Y5237700D01*
X5117600Y5235800D01*
X5109800Y5236700D01*
X5103200Y5240600D01*
X5090100Y5260100D01*
X5080900Y5268900D01*
X5067800Y5274700D01*
X5056000Y5276600D01*
Y5235800D01*
G01X5108900Y6190700D02*
X5115300Y6186600D01*
X5118400Y6181900D01*
X5119500Y6176400D01*
X5117400Y6169700D01*
X5112100Y6164900D01*
X5105700Y6163600D01*
X5099400Y6164300D01*
X5094100Y6167000D01*
X5083500Y6180500D01*
X5076100Y6186600D01*
X5065500Y6190700D01*
X5056000Y6192000D01*
Y6163600D01*
G01X5195700Y5748500D02*
X5259200D01*
X5246500Y5756600D01*
G01X5195700D02*
Y5740400D01*
G01X5953200Y1521900D02*
X5947400Y1514000D01*
X5940500Y1510100D01*
X5932800Y1508800D01*
X5923000Y1511400D01*
X5916200Y1518000D01*
X5914300Y1525900D01*
X5915200Y1533700D01*
X5919100Y1540300D01*
X5938600Y1553400D01*
X5947400Y1562600D01*
X5953200Y1575700D01*
X5955100Y1587500D01*
X5914300D01*
G01X5934700Y2603500D02*
Y2524800D01*
X5946400Y2540500D01*
G01Y2603500D02*
X5923000D01*
G01X5751600Y5477000D02*
X5904000D01*
X5967500Y5413500D01*
X6094500D01*
X6158000Y5477000D01*
X6310400D01*
Y4461000D01*
X5751600D01*
Y5477000D01*
G01X6374300Y4597500D02*
X6378400Y4592200D01*
X6383100Y4589100D01*
X6389200Y4588000D01*
X6395300Y4590100D01*
X6400000Y4594300D01*
X6403400Y4601800D01*
X6404100Y4610200D01*
X6402700Y4618700D01*
X6399300Y4624000D01*
X6394600Y4628200D01*
X6389900Y4629300D01*
X6385100Y4628200D01*
X6379100Y4624000D01*
X6381100Y4651500D01*
X6399300D01*
G01X6376300Y4868500D02*
X6381100Y4875900D01*
X6385100Y4880100D01*
X6390600Y4882200D01*
X6395300Y4880100D01*
X6398700Y4875900D01*
X6401400Y4869500D01*
X6402100Y4862100D01*
X6401400Y4855800D01*
X6398700Y4849400D01*
X6394600Y4844100D01*
X6389900Y4842000D01*
X6384500Y4844100D01*
X6379700Y4850500D01*
X6377000Y4860000D01*
X6376300Y4870600D01*
X6377700Y4884300D01*
X6379700Y4891700D01*
X6383100Y4899100D01*
X6387800Y4904400D01*
X6392600Y4905500D01*
X6397300Y4903400D01*
X6400700Y4898100D01*
G01X6387800Y5096000D02*
X6389200Y5109800D01*
X6391200Y5121400D01*
X6393900Y5132000D01*
X6397300Y5143600D01*
X6402700Y5159500D01*
X6375700D01*
G01X6389200Y5350000D02*
X6393900Y5351100D01*
X6399300Y5354200D01*
X6402700Y5359500D01*
X6404100Y5366900D01*
X6402700Y5374300D01*
X6398700Y5380700D01*
X6392600Y5383900D01*
X6385800D01*
X6381800Y5386000D01*
X6378400Y5391300D01*
X6377000Y5398700D01*
X6379100Y5406100D01*
X6383800Y5411400D01*
X6389200Y5413500D01*
X6394600Y5411400D01*
X6399300Y5406100D01*
X6401400Y5398700D01*
X6400000Y5391300D01*
X6396600Y5386000D01*
X6392600Y5383900D01*
X6385800D01*
X6379700Y5380700D01*
X6375700Y5374300D01*
X6374300Y5366900D01*
X6375700Y5359500D01*
X6379100Y5354200D01*
X6384500Y5351100D01*
X6389200Y5350000D01*
G01X5735700Y6096000D02*
X5775900Y5969000D01*
X5816200Y6096000D01*
G01X5873300Y5969000D02*
Y6096000D01*
X5913500D01*
X5926400Y6089600D01*
X5934400Y6081200D01*
X5937600Y6064200D01*
X5934400Y6047300D01*
X5924800Y6036700D01*
X5913500Y6030400D01*
X5873300D01*
G01X5913500D02*
X5937600Y5969000D01*
G01X6004400Y6074800D02*
X6014000Y6087500D01*
X6025300Y6093900D01*
X6038200Y6096000D01*
X6054300Y6091800D01*
X6065500Y6081200D01*
X6068700Y6068500D01*
X6067100Y6055800D01*
X6060700Y6045200D01*
X6028500Y6024000D01*
X6014000Y6009200D01*
X6004400Y5988000D01*
X6001200Y5969000D01*
X6068700D01*
G01X6731500Y5719000D02*
X6096500D01*
Y6227000D01*
X6731500D01*
Y5719000D01*
G01X6361100Y5749300D02*
X6354700Y5753400D01*
X6351600Y5758100D01*
X6350500Y5763600D01*
X6352600Y5770300D01*
X6357900Y5775100D01*
X6364300Y5776400D01*
X6370600Y5775700D01*
X6375900Y5773000D01*
X6386500Y5759500D01*
X6393900Y5753400D01*
X6404500Y5749300D01*
X6414000Y5748000D01*
Y5776400D01*
G01X6274300Y6191500D02*
X6210800D01*
X6223500Y6183400D01*
G01X6274300D02*
Y6199600D01*
G01X6631600Y3257000D02*
X6784000D01*
X6847500Y3193500D01*
X6974500D01*
X7038000Y3257000D01*
X7190400D01*
Y2241000D01*
X6631600D01*
Y3257000D01*
G01X6515300Y2368000D02*
Y2431500D01*
X6490300Y2386000D01*
X6524100D01*
G01X6492300Y2634700D02*
X6496400Y2627300D01*
X6501800Y2623100D01*
X6507900Y2622000D01*
X6513300Y2623100D01*
X6518700Y2628300D01*
X6522100Y2634700D01*
X6522800Y2641000D01*
X6521400Y2648500D01*
X6516700Y2653700D01*
X6511900Y2655900D01*
X6505800D01*
G01X6511900D02*
X6516000Y2659000D01*
X6519400Y2664300D01*
X6520700Y2670700D01*
X6519400Y2677000D01*
X6516000Y2682300D01*
X6509900Y2685500D01*
X6503800Y2684400D01*
X6497700Y2680200D01*
G01X6494300Y2928900D02*
X6498400Y2935300D01*
X6503100Y2938400D01*
X6508600Y2939500D01*
X6515300Y2937400D01*
X6520100Y2932100D01*
X6521400Y2925700D01*
X6520700Y2919400D01*
X6518000Y2914100D01*
X6504500Y2903500D01*
X6498400Y2896100D01*
X6494300Y2885500D01*
X6493000Y2876000D01*
X6521400D01*
G01X6507200Y3130000D02*
Y3193500D01*
X6499100Y3180800D01*
G01Y3130000D02*
X6515300D01*
G01X6555700Y5332200D02*
Y5241200D01*
X6562100Y5222100D01*
X6575000Y5209400D01*
X6591000Y5205200D01*
X6607100Y5209400D01*
X6620000Y5222100D01*
X6626400Y5241200D01*
Y5332200D01*
G01X6720500Y5205200D02*
Y5332200D01*
X6701200Y5306800D01*
G01Y5205200D02*
X6739800D01*
G01X7013800Y5334000D02*
Y5412700D01*
X7038200D01*
X7046000Y5408800D01*
X7050800Y5403500D01*
X7052800Y5393000D01*
X7050800Y5382500D01*
X7045000Y5376000D01*
X7038200Y5372000D01*
X7013800D01*
G01X7038200D02*
X7052800Y5334000D01*
G01X7112000D02*
Y5412700D01*
X7100300Y5397000D01*
G01Y5334000D02*
X7123700D01*
G01X7190700Y5412700D02*
X7182900Y5410100D01*
X7177100Y5403500D01*
X7173200Y5395600D01*
X7170300Y5385200D01*
X7169300Y5373300D01*
X7170300Y5361500D01*
X7173200Y5351100D01*
X7177100Y5343200D01*
X7182900Y5336600D01*
X7190700Y5334000D01*
X7198500Y5336600D01*
X7204300Y5343200D01*
X7208200Y5351100D01*
X7211100Y5361500D01*
X7212100Y5373300D01*
X7211100Y5385200D01*
X7208200Y5395600D01*
X7204300Y5403500D01*
X7198500Y5410100D01*
X7190700Y5412700D01*
G01X6655300Y6001300D02*
X6662700Y6005400D01*
X6666900Y6010800D01*
X6668000Y6016900D01*
X6666900Y6022300D01*
X6661700Y6027700D01*
X6655300Y6031100D01*
X6649000Y6031800D01*
X6641500Y6030400D01*
X6636300Y6025700D01*
X6634100Y6020900D01*
Y6014800D01*
G01Y6020900D02*
X6631000Y6025000D01*
X6625700Y6028400D01*
X6619300Y6029700D01*
X6613000Y6028400D01*
X6607700Y6025000D01*
X6604500Y6018900D01*
X6605600Y6012800D01*
X6609800Y6006700D01*
G01X7254300Y2377500D02*
X7258400Y2372200D01*
X7263100Y2369100D01*
X7269200Y2368000D01*
X7275300Y2370100D01*
X7280000Y2374300D01*
X7283400Y2381800D01*
X7284100Y2390200D01*
X7282700Y2398700D01*
X7279300Y2404000D01*
X7274600Y2408200D01*
X7269900Y2409300D01*
X7265100Y2408200D01*
X7259100Y2404000D01*
X7261100Y2431500D01*
X7279300D01*
G01X7256300Y2648500D02*
X7261100Y2655900D01*
X7265100Y2660100D01*
X7270600Y2662200D01*
X7275300Y2660100D01*
X7278700Y2655900D01*
X7281400Y2649500D01*
X7282100Y2642100D01*
X7281400Y2635800D01*
X7278700Y2629400D01*
X7274600Y2624100D01*
X7269900Y2622000D01*
X7264500Y2624100D01*
X7259700Y2630500D01*
X7257000Y2640000D01*
X7256300Y2650600D01*
X7257700Y2664300D01*
X7259700Y2671700D01*
X7263100Y2679100D01*
X7267800Y2684400D01*
X7272600Y2685500D01*
X7277300Y2683400D01*
X7280700Y2678100D01*
G01X7435700Y3112200D02*
Y3021200D01*
X7442100Y3002100D01*
X7455000Y2989400D01*
X7471000Y2985200D01*
X7487100Y2989400D01*
X7500000Y3002100D01*
X7506400Y3021200D01*
Y3112200D01*
G01X7619900Y2985200D02*
Y3112200D01*
X7560300Y3021200D01*
X7640800D01*
G01X7267800Y2876000D02*
X7269200Y2889800D01*
X7271200Y2901400D01*
X7273900Y2912000D01*
X7277300Y2923600D01*
X7282700Y2939500D01*
X7255700D01*
G01X7269200Y3130000D02*
X7273900Y3131100D01*
X7279300Y3134200D01*
X7282700Y3139500D01*
X7284100Y3146900D01*
X7282700Y3154300D01*
X7278700Y3160700D01*
X7272600Y3163900D01*
X7265800D01*
X7261800Y3166000D01*
X7258400Y3171300D01*
X7257000Y3178700D01*
X7259100Y3186100D01*
X7263800Y3191400D01*
X7269200Y3193500D01*
X7274600Y3191400D01*
X7279300Y3186100D01*
X7281400Y3178700D01*
X7280000Y3171300D01*
X7276600Y3166000D01*
X7272600Y3163900D01*
X7265800D01*
X7259700Y3160700D01*
X7255700Y3154300D01*
X7254300Y3146900D01*
X7255700Y3139500D01*
X7259100Y3134200D01*
X7264500Y3131100D01*
X7269200Y3130000D01*
G01X7527000Y5947600D02*
Y5236400D01*
X7273000D01*
Y5947600D01*
X7527000D01*
G01X7574700Y5018400D02*
X7568900Y5010500D01*
X7562000Y5006600D01*
X7554300Y5005300D01*
X7544500Y5007900D01*
X7537700Y5014500D01*
X7535800Y5022400D01*
X7536700Y5030200D01*
X7540600Y5036800D01*
X7560100Y5049900D01*
X7568900Y5059100D01*
X7574700Y5072200D01*
X7576600Y5084000D01*
X7535800D01*
G01X7556200Y6100000D02*
Y6021300D01*
X7567900Y6037000D01*
G01Y6100000D02*
X7544500D01*
G01X8474300Y2349500D02*
Y2428200D01*
X8498700D01*
X8506500Y2424300D01*
X8511300Y2419000D01*
X8513300Y2408500D01*
X8511300Y2398000D01*
X8505500Y2391500D01*
X8498700Y2387500D01*
X8474300D01*
G01X8498700D02*
X8513300Y2349500D01*
G01X8572500D02*
Y2428200D01*
X8560800Y2412500D01*
G01Y2349500D02*
X8584200D01*
G01X8662900D02*
Y2428200D01*
X8626900Y2371800D01*
X8675500D01*
G01X8462400Y2747000D02*
X9173600D01*
Y2493000D01*
X8462400D01*
Y2747000D01*
G01X8310000Y2776200D02*
X8388700D01*
X8373000Y2787900D01*
G01X8310000D02*
Y2764500D01*
G01X8148700Y4127500D02*
X8188900Y4000500D01*
X8229200Y4127500D01*
G01X8286300Y4000500D02*
Y4127500D01*
X8326500D01*
X8339400Y4121100D01*
X8347400Y4112700D01*
X8350600Y4095700D01*
X8347400Y4078800D01*
X8337800Y4068200D01*
X8326500Y4061900D01*
X8286300D01*
G01X8326500D02*
X8350600Y4000500D01*
G01X8412600Y4025900D02*
X8422200Y4011100D01*
X8435100Y4002600D01*
X8449600Y4000500D01*
X8462400Y4002600D01*
X8475300Y4013200D01*
X8483300Y4025900D01*
X8484900Y4038600D01*
X8481700Y4053400D01*
X8470500Y4064000D01*
X8459200Y4068200D01*
X8444700D01*
G01X8459200D02*
X8468900Y4074600D01*
X8476900Y4085200D01*
X8480100Y4097900D01*
X8476900Y4110600D01*
X8468900Y4121100D01*
X8454400Y4127500D01*
X8439900Y4125400D01*
X8425400Y4116900D01*
G01X8548500Y4421000D02*
X9183500D01*
Y3913000D01*
X8548500D01*
Y4421000D01*
G01X8624700Y4138700D02*
X8617300Y4134600D01*
X8613100Y4129200D01*
X8612000Y4123100D01*
X8613100Y4117700D01*
X8618300Y4112300D01*
X8624700Y4108900D01*
X8631000Y4108200D01*
X8638500Y4109600D01*
X8643700Y4114300D01*
X8645900Y4119100D01*
Y4125200D01*
G01Y4119100D02*
X8649000Y4115000D01*
X8654300Y4111600D01*
X8660700Y4110300D01*
X8667000Y4111600D01*
X8672300Y4115000D01*
X8675500Y4121100D01*
X8674400Y4127200D01*
X8670200Y4133300D01*
G01X8711600Y5477000D02*
X8864000D01*
X8927500Y5413500D01*
X9054500D01*
X9118000Y5477000D01*
X9270400D01*
Y4461000D01*
X8711600D01*
Y5477000D01*
G01X8595300Y4588000D02*
Y4651500D01*
X8570300Y4606000D01*
X8604100D01*
G01X8572300Y4854700D02*
X8576400Y4847300D01*
X8581800Y4843100D01*
X8587900Y4842000D01*
X8593300Y4843100D01*
X8598700Y4848300D01*
X8602100Y4854700D01*
X8602800Y4861000D01*
X8601400Y4868500D01*
X8596700Y4873700D01*
X8591900Y4875900D01*
X8585800D01*
G01X8591900D02*
X8596000Y4879000D01*
X8599400Y4884300D01*
X8600700Y4890700D01*
X8599400Y4897000D01*
X8596000Y4902300D01*
X8589900Y4905500D01*
X8583800Y4904400D01*
X8577700Y4900200D01*
G01X8574300Y5148900D02*
X8578400Y5155300D01*
X8583100Y5158400D01*
X8588600Y5159500D01*
X8595300Y5157400D01*
X8600100Y5152100D01*
X8601400Y5145700D01*
X8600700Y5139400D01*
X8598000Y5134100D01*
X8584500Y5123500D01*
X8578400Y5116100D01*
X8574300Y5105500D01*
X8573000Y5096000D01*
X8601400D01*
G01X8587200Y5350000D02*
Y5413500D01*
X8579100Y5400800D01*
G01Y5350000D02*
X8595300D01*
G01X8610000Y6196200D02*
X8688700D01*
X8673000Y6207900D01*
G01X8610000D02*
Y6184500D01*
G01X9467000Y2983000D02*
X9213000D01*
Y3491000D01*
X9467000D01*
Y2983000D01*
G01X9259200Y3285100D02*
X9252800Y3289200D01*
X9249700Y3293900D01*
X9248600Y3299400D01*
X9250700Y3306100D01*
X9256000Y3310900D01*
X9262400Y3312200D01*
X9268700Y3311500D01*
X9274000Y3308800D01*
X9284600Y3295300D01*
X9292000Y3289200D01*
X9302600Y3285100D01*
X9312100Y3283800D01*
Y3312200D01*
G01X9324800Y3052900D02*
X9246100D01*
X9261800Y3041200D01*
G01X9324800D02*
Y3064600D01*
G01X9391600Y2794700D02*
X9399500Y2788900D01*
X9403400Y2782000D01*
X9404700Y2774300D01*
X9402100Y2764500D01*
X9395500Y2757700D01*
X9387600Y2755800D01*
X9379800Y2756700D01*
X9373200Y2760600D01*
X9360100Y2780100D01*
X9350900Y2788900D01*
X9337800Y2794700D01*
X9326000Y2796600D01*
Y2755800D01*
G01X9005700Y3948500D02*
X9069200D01*
X9056500Y3956600D01*
G01X9005700D02*
Y3940400D01*
G01X9212100Y3571700D02*
X9217000Y3563900D01*
X9222800Y3558600D01*
X9229700Y3556000D01*
X9237400Y3558600D01*
X9243300Y3563900D01*
X9249100Y3571700D01*
X9251100Y3582200D01*
Y3634700D01*
G01X9291800Y3621600D02*
X9297600Y3629500D01*
X9304500Y3633400D01*
X9312200Y3634700D01*
X9322000Y3632100D01*
X9328800Y3625500D01*
X9330700Y3617600D01*
X9329800Y3609800D01*
X9325900Y3603200D01*
X9306400Y3590100D01*
X9297600Y3580900D01*
X9291800Y3567800D01*
X9289900Y3556000D01*
X9330700D01*
G01X9334300Y4597500D02*
X9338400Y4592200D01*
X9343100Y4589100D01*
X9349200Y4588000D01*
X9355300Y4590100D01*
X9360000Y4594300D01*
X9363400Y4601800D01*
X9364100Y4610200D01*
X9362700Y4618700D01*
X9359300Y4624000D01*
X9354600Y4628200D01*
X9349900Y4629300D01*
X9345100Y4628200D01*
X9339100Y4624000D01*
X9341100Y4651500D01*
X9359300D01*
G01X9336300Y4868500D02*
X9341100Y4875900D01*
X9345100Y4880100D01*
X9350600Y4882200D01*
X9355300Y4880100D01*
X9358700Y4875900D01*
X9361400Y4869500D01*
X9362100Y4862100D01*
X9361400Y4855800D01*
X9358700Y4849400D01*
X9354600Y4844100D01*
X9349900Y4842000D01*
X9344500Y4844100D01*
X9339700Y4850500D01*
X9337000Y4860000D01*
X9336300Y4870600D01*
X9337700Y4884300D01*
X9339700Y4891700D01*
X9343100Y4899100D01*
X9347800Y4904400D01*
X9352600Y4905500D01*
X9357300Y4903400D01*
X9360700Y4898100D01*
G01X8918900Y4390700D02*
X8925300Y4386600D01*
X8928400Y4381900D01*
X8929500Y4376400D01*
X8927400Y4369700D01*
X8922100Y4364900D01*
X8915700Y4363600D01*
X8909400Y4364300D01*
X8904100Y4367000D01*
X8893500Y4380500D01*
X8886100Y4386600D01*
X8875500Y4390700D01*
X8866000Y4392000D01*
Y4363600D01*
G01X9488400Y5461000D02*
Y5370000D01*
X9494800Y5350900D01*
X9507700Y5338200D01*
X9523700Y5334000D01*
X9539800Y5338200D01*
X9552700Y5350900D01*
X9559100Y5370000D01*
Y5461000D01*
G01X9622700Y5439800D02*
X9632300Y5452500D01*
X9643600Y5458900D01*
X9656500Y5461000D01*
X9672600Y5456800D01*
X9683800Y5446200D01*
X9687000Y5433500D01*
X9685400Y5420800D01*
X9679000Y5410200D01*
X9646800Y5389000D01*
X9632300Y5374200D01*
X9622700Y5353000D01*
X9619500Y5334000D01*
X9687000D01*
G01X9347800Y5096000D02*
X9349200Y5109800D01*
X9351200Y5121400D01*
X9353900Y5132000D01*
X9357300Y5143600D01*
X9362700Y5159500D01*
X9335700D01*
G01X9349200Y5350000D02*
X9353900Y5351100D01*
X9359300Y5354200D01*
X9362700Y5359500D01*
X9364100Y5366900D01*
X9362700Y5374300D01*
X9358700Y5380700D01*
X9352600Y5383900D01*
X9345800D01*
X9341800Y5386000D01*
X9338400Y5391300D01*
X9337000Y5398700D01*
X9339100Y5406100D01*
X9343800Y5411400D01*
X9349200Y5413500D01*
X9354600Y5411400D01*
X9359300Y5406100D01*
X9361400Y5398700D01*
X9360000Y5391300D01*
X9356600Y5386000D01*
X9352600Y5383900D01*
X9345800D01*
X9339700Y5380700D01*
X9335700Y5374300D01*
X9334300Y5366900D01*
X9335700Y5359500D01*
X9339100Y5354200D01*
X9344500Y5351100D01*
X9349200Y5350000D01*
G01X8791800Y5778500D02*
Y5857200D01*
X8816200D01*
X8824000Y5853300D01*
X8828800Y5848000D01*
X8830800Y5837500D01*
X8828800Y5827000D01*
X8823000Y5820500D01*
X8816200Y5816500D01*
X8791800D01*
G01X8816200D02*
X8830800Y5778500D01*
G01X8890000D02*
Y5857200D01*
X8878300Y5841500D01*
G01Y5778500D02*
X8901700D01*
G01X8968700D02*
Y5857200D01*
X8957000Y5841500D01*
G01Y5778500D02*
X8980400D01*
G01X8762400Y6167000D02*
X9473600D01*
Y5913000D01*
X8762400D01*
Y6167000D01*
G01X9691600Y6214700D02*
X9699500Y6208900D01*
X9703400Y6202000D01*
X9704700Y6194300D01*
X9702100Y6184500D01*
X9695500Y6177700D01*
X9687600Y6175800D01*
X9679800Y6176700D01*
X9673200Y6180600D01*
X9660100Y6200100D01*
X9650900Y6208900D01*
X9637800Y6214700D01*
X9626000Y6216600D01*
Y6175800D01*
M02*
