G04 ================== begin FILE IDENTIFICATION RECORD ==================*
G04 Layout Name:  CHOPPING_WAVE_OSC3.brd*
G04 Film Name:    soldb*
G04 File Format:  Gerber RS274X*
G04 File Origin:  Cadence Allegro 17.2-P019*
G04 Origin Date:  Wed Jul 31 12:21:45 2019*
G04 *
G04 Layer:  VIA CLASS/SOLDERMASK_BOTTOM*
G04 Layer:  PIN/SOLDERMASK_BOTTOM*
G04 Layer:  PACKAGE GEOMETRY/SOLDERMASK_BOTTOM*
G04 Layer:  BOARD GEOMETRY/SOLDERMASK_BOTTOM*
G04 *
G04 Offset:    (0.000 0.000)*
G04 Mirror:    No*
G04 Mode:      Positive*
G04 Rotation:  0*
G04 FullContactRelief:  No*
G04 UndefLineWidth:     0.000*
G04 ================== end FILE IDENTIFICATION RECORD ====================*
%FSLAX25Y25*MOMM*%
%IR0*IPPOS*OFA0.00000B0.00000*MIA0B0*SFA1.00000B1.00000*%
%ADD12C,2.032*%
%ADD11C,1.905*%
%ADD10C,3.683*%
%ADD13R,1.905X1.905*%
%LPD*%
G75*
G54D10*
X500000Y500000D03*
Y6500000D03*
X9500000Y500000D03*
Y6500000D03*
G54D11*
X500000Y2992000D03*
Y3246000D03*
Y3500000D03*
X1070000Y6094000D03*
Y5840000D03*
X1930000Y5586000D03*
Y5840000D03*
X2240000Y2368000D03*
Y2622000D03*
Y2876000D03*
X2700000Y5590000D03*
Y5844000D03*
X3002000Y2368000D03*
Y2622000D03*
Y2876000D03*
Y3130000D03*
X3410000Y5586000D03*
Y5840000D03*
X4802000D03*
X5650000Y4588000D03*
Y4842000D03*
Y5096000D03*
X5056000Y6094000D03*
X5310000Y5840000D03*
X6530000Y2368000D03*
Y2622000D03*
Y2876000D03*
X6412000Y4588000D03*
Y4842000D03*
Y5096000D03*
Y5350000D03*
X6414000Y5846000D03*
X6160000Y6100000D03*
X7292000Y2368000D03*
Y2622000D03*
Y2876000D03*
Y3130000D03*
X6668000Y6100000D03*
X8612000Y4040000D03*
X8610000Y4588000D03*
Y4842000D03*
Y5096000D03*
X9340000Y3364000D03*
Y3110000D03*
X9120000Y4040000D03*
X9372000Y4588000D03*
Y4842000D03*
X8866000Y4294000D03*
X9372000Y5096000D03*
Y5350000D03*
G54D12*
X1070000Y3764000D03*
Y4780000D03*
X1930000Y3764000D03*
Y4780000D03*
X2700000Y3764000D03*
Y4780000D03*
X3410000Y3764000D03*
Y4780000D03*
X4064000Y1587500D03*
Y2603500D03*
X4110000Y3644000D03*
Y4660000D03*
X4040000Y5100000D03*
X5778500Y1587500D03*
X5080000D03*
X5778500Y2603500D03*
X5080000D03*
X5310000Y3554000D03*
Y4570000D03*
X5056000Y5100000D03*
X7400000Y5084000D03*
Y6100000D03*
X8310000Y2620000D03*
X8610000Y6040000D03*
X9326000Y2620000D03*
X9626000Y6040000D03*
G54D13*
X2240000Y3130000D03*
X5650000Y5350000D03*
X6530000Y3130000D03*
X8610000Y5350000D03*
M02*
